<mxfile host="app.diagrams.net" agent="Mozilla/5.0 (Windows NT 10.0; Win64; x64) AppleWebKit/537.36 (KHTML, like Gecko) Chrome/129.0.0.0 Safari/537.36 Edg/129.0.0.0" version="24.7.17">
  <diagram name="Page-1" id="vzPiampJGOgLUXS1uVMp">
    <mxGraphModel dx="2246" dy="2469" grid="1" gridSize="10" guides="1" tooltips="1" connect="1" arrows="1" fold="1" page="1" pageScale="1" pageWidth="827" pageHeight="1169" math="0" shadow="0">
      <root>
        <mxCell id="0" />
        <mxCell id="1" parent="0" />
        <mxCell id="CpKSm_lZ4Au84QsUmd1u-130" value="" style="rounded=1;whiteSpace=wrap;html=1;backgroundOutline=0;container=0;fillColor=#F8F7F7;strokeColor=#23445d;" vertex="1" parent="1">
          <mxGeometry x="25" y="-585" width="1480" height="1170" as="geometry" />
        </mxCell>
        <mxCell id="4Rz57oh3S_hWfWaD270Q-6" value="" style="shape=flexArrow;endArrow=classic;html=1;rounded=0;entryX=0;entryY=0.5;entryDx=0;entryDy=0;exitX=1;exitY=0.5;exitDx=0;exitDy=0;" parent="1" source="CpKSm_lZ4Au84QsUmd1u-49" target="4Rz57oh3S_hWfWaD270Q-34" edge="1">
          <mxGeometry width="50" height="50" relative="1" as="geometry">
            <mxPoint x="440" y="180" as="sourcePoint" />
            <mxPoint x="543.7419999999997" y="557.3599999999999" as="targetPoint" />
          </mxGeometry>
        </mxCell>
        <mxCell id="4Rz57oh3S_hWfWaD270Q-7" value="requêtes" style="edgeLabel;html=1;align=center;verticalAlign=middle;resizable=0;points=[];" parent="4Rz57oh3S_hWfWaD270Q-6" vertex="1" connectable="0">
          <mxGeometry x="-0.1101" y="-1" relative="1" as="geometry">
            <mxPoint as="offset" />
          </mxGeometry>
        </mxCell>
        <mxCell id="4Rz57oh3S_hWfWaD270Q-8" value="" style="shape=flexArrow;endArrow=classic;html=1;rounded=0;entryX=0.5;entryY=0;entryDx=0;entryDy=0;exitX=0;exitY=0.75;exitDx=0;exitDy=0;" parent="1" target="CpKSm_lZ4Au84QsUmd1u-1" edge="1" source="4Rz57oh3S_hWfWaD270Q-34">
          <mxGeometry width="50" height="50" relative="1" as="geometry">
            <mxPoint x="330" y="930" as="sourcePoint" />
            <mxPoint x="60" y="920" as="targetPoint" />
          </mxGeometry>
        </mxCell>
        <mxCell id="4Rz57oh3S_hWfWaD270Q-9" value="accès aux données" style="edgeLabel;html=1;align=center;verticalAlign=middle;resizable=0;points=[];" parent="4Rz57oh3S_hWfWaD270Q-8" vertex="1" connectable="0">
          <mxGeometry x="0.1497" y="2" relative="1" as="geometry">
            <mxPoint as="offset" />
          </mxGeometry>
        </mxCell>
        <mxCell id="4Rz57oh3S_hWfWaD270Q-10" value="" style="shape=flexArrow;endArrow=classic;html=1;rounded=0;entryX=0.5;entryY=1;entryDx=0;entryDy=0;exitX=0;exitY=0.5;exitDx=0;exitDy=0;" parent="1" source="CpKSm_lZ4Au84QsUmd1u-1" target="CpKSm_lZ4Au84QsUmd1u-49" edge="1">
          <mxGeometry width="50" height="50" relative="1" as="geometry">
            <mxPoint x="690" y="440" as="sourcePoint" />
            <mxPoint x="78.15000000000009" y="384.4200000000001" as="targetPoint" />
          </mxGeometry>
        </mxCell>
        <mxCell id="4Rz57oh3S_hWfWaD270Q-11" value="Affichage des résultats" style="edgeLabel;html=1;align=center;verticalAlign=middle;resizable=0;points=[];" parent="4Rz57oh3S_hWfWaD270Q-10" vertex="1" connectable="0">
          <mxGeometry x="0.1706" y="1" relative="1" as="geometry">
            <mxPoint x="-1" as="offset" />
          </mxGeometry>
        </mxCell>
        <mxCell id="4Rz57oh3S_hWfWaD270Q-34" value="Serveur" style="swimlane;whiteSpace=wrap;html=1;fillColor=#ffcccc;strokeColor=#36393d;swimlaneFillColor=#ffeddb;" parent="1" vertex="1">
          <mxGeometry x="1000" y="-260" width="440" height="350" as="geometry" />
        </mxCell>
        <mxCell id="4Rz57oh3S_hWfWaD270Q-42" style="edgeStyle=orthogonalEdgeStyle;rounded=0;orthogonalLoop=1;jettySize=auto;html=1;exitX=0.5;exitY=1;exitDx=0;exitDy=0;exitPerimeter=0;entryX=0.5;entryY=1;entryDx=0;entryDy=0;" parent="4Rz57oh3S_hWfWaD270Q-34" target="4Rz57oh3S_hWfWaD270Q-36" edge="1">
          <mxGeometry relative="1" as="geometry">
            <mxPoint x="220" y="100" as="sourcePoint" />
            <mxPoint x="385" y="154" as="targetPoint" />
          </mxGeometry>
        </mxCell>
        <mxCell id="4Rz57oh3S_hWfWaD270Q-43" style="edgeStyle=orthogonalEdgeStyle;rounded=0;orthogonalLoop=1;jettySize=auto;html=1;" parent="4Rz57oh3S_hWfWaD270Q-34" source="4Rz57oh3S_hWfWaD270Q-39" target="4Rz57oh3S_hWfWaD270Q-35" edge="1">
          <mxGeometry relative="1" as="geometry" />
        </mxCell>
        <mxCell id="4Rz57oh3S_hWfWaD270Q-45" style="edgeStyle=orthogonalEdgeStyle;rounded=0;orthogonalLoop=1;jettySize=auto;html=1;entryX=0.5;entryY=1;entryDx=0;entryDy=0;" parent="4Rz57oh3S_hWfWaD270Q-34" target="4Rz57oh3S_hWfWaD270Q-37" edge="1">
          <mxGeometry relative="1" as="geometry">
            <mxPoint x="219.9473684210525" y="66" as="sourcePoint" />
            <mxPoint x="280" y="120" as="targetPoint" />
            <Array as="points">
              <mxPoint x="220" y="100" />
              <mxPoint x="280" y="100" />
            </Array>
          </mxGeometry>
        </mxCell>
        <mxCell id="4Rz57oh3S_hWfWaD270Q-39" value="&lt;pre&gt;&lt;br&gt;&lt;/pre&gt;" style="sketch=0;aspect=fixed;pointerEvents=1;shadow=0;dashed=0;html=1;strokeColor=none;labelPosition=center;verticalLabelPosition=bottom;verticalAlign=top;align=center;fillColor=#999999;shape=mxgraph.mscae.enterprise.filter" parent="4Rz57oh3S_hWfWaD270Q-34" vertex="1">
          <mxGeometry x="200" y="35" width="40" height="36" as="geometry" />
        </mxCell>
        <mxCell id="4Rz57oh3S_hWfWaD270Q-38" value="&lt;h5&gt;Diagramme circulaire&lt;/h5&gt;" style="ellipse;whiteSpace=wrap;html=1;strokeWidth=1;fillWeight=2;hachureGap=8;fillColor=#d0cee2;fillStyle=dots;sketch=1;direction=west;strokeColor=#67AB9F;" parent="4Rz57oh3S_hWfWaD270Q-34" vertex="1">
          <mxGeometry x="5" y="130" width="105" height="40" as="geometry" />
        </mxCell>
        <mxCell id="4Rz57oh3S_hWfWaD270Q-35" value="&lt;h5&gt;Histogramme des étiquettes DPE&lt;/h5&gt;" style="ellipse;whiteSpace=wrap;html=1;strokeWidth=1;fillWeight=2;hachureGap=8;fillColor=#bac8d3;fillStyle=dots;sketch=1;strokeColor=#67AB9F;" parent="4Rz57oh3S_hWfWaD270Q-34" vertex="1">
          <mxGeometry x="120" y="130" width="100" height="40" as="geometry" />
        </mxCell>
        <mxCell id="4Rz57oh3S_hWfWaD270Q-37" value="&lt;h5&gt;Scatter plot Consommation vs Surface&lt;/h5&gt;" style="ellipse;whiteSpace=wrap;html=1;strokeWidth=1;fillWeight=2;hachureGap=8;fillColor=#bac8d3;fillStyle=dots;sketch=1;direction=west;strokeColor=#67AB9F;" parent="4Rz57oh3S_hWfWaD270Q-34" vertex="1">
          <mxGeometry x="230" y="125" width="100" height="50" as="geometry" />
        </mxCell>
        <mxCell id="4Rz57oh3S_hWfWaD270Q-36" value="&lt;h5&gt;Boxplot des coûts énergétiques&lt;/h5&gt;" style="ellipse;whiteSpace=wrap;html=1;strokeWidth=1;fillWeight=2;hachureGap=8;fillColor=#bac8d3;fillStyle=dots;sketch=1;direction=west;strokeColor=#67AB9F;" parent="4Rz57oh3S_hWfWaD270Q-34" vertex="1">
          <mxGeometry x="335" y="125" width="100" height="50" as="geometry" />
        </mxCell>
        <mxCell id="CpKSm_lZ4Au84QsUmd1u-20" value="filtres" style="rounded=0;whiteSpace=wrap;html=1;strokeColor=#EA6B66;fillColor=#ffeddb;strokeWidth=1;perimeterSpacing=0;" vertex="1" parent="4Rz57oh3S_hWfWaD270Q-34">
          <mxGeometry x="150" y="43" width="50" height="20" as="geometry" />
        </mxCell>
        <mxCell id="CpKSm_lZ4Au84QsUmd1u-52" value="&lt;font size=&quot;1&quot; color=&quot;#ffffff&quot;&gt;&lt;b style=&quot;font-size: 14px;&quot;&gt;Infobox KPI&lt;/b&gt;&lt;/font&gt;" style="swimlane;fontStyle=0;childLayout=stackLayout;horizontal=1;startSize=30;horizontalStack=0;resizeParent=1;resizeParentMax=0;resizeLast=0;collapsible=1;marginBottom=0;whiteSpace=wrap;html=1;verticalAlign=top;fillColor=#CC0066;" vertex="1" parent="4Rz57oh3S_hWfWaD270Q-34">
          <mxGeometry x="125" y="220" width="190" height="90" as="geometry" />
        </mxCell>
        <mxCell id="CpKSm_lZ4Au84QsUmd1u-53" value="&lt;li style=&quot;font-size: 12px;&quot;&gt;&lt;code style=&quot;font-size: 12px;&quot;&gt;&lt;font style=&quot;font-size: 12px;&quot; face=&quot;Helvetica&quot;&gt;Total Logements&lt;/font&gt;&lt;/code&gt;&lt;/li&gt;&lt;li style=&quot;font-size: 12px;&quot;&gt;&lt;code style=&quot;font-size: 12px;&quot;&gt;&lt;font face=&quot;Helvetica&quot; style=&quot;font-size: 12px;&quot;&gt;Passoires thermiques&lt;/font&gt;&lt;/code&gt;&lt;/li&gt;&lt;li style=&quot;font-size: 12px;&quot;&gt;&lt;code style=&quot;font-size: 12px;&quot;&gt;&lt;font face=&quot;Helvetica&quot; style=&quot;font-size: 12px;&quot;&gt;Conso. énergétique moyenne&lt;/font&gt;&lt;/code&gt;&lt;/li&gt;" style="text;strokeColor=none;fillColor=none;align=left;verticalAlign=top;spacingLeft=4;spacingRight=4;overflow=hidden;points=[[0,0.5],[1,0.5]];portConstraint=eastwest;rotatable=0;whiteSpace=wrap;html=1;fontFamily=Times New Roman;fontSize=12;fontStyle=0" vertex="1" parent="CpKSm_lZ4Au84QsUmd1u-52">
          <mxGeometry y="30" width="190" height="60" as="geometry" />
        </mxCell>
        <mxCell id="CpKSm_lZ4Au84QsUmd1u-120" value="ggplot2" style="shape=delay;whiteSpace=wrap;html=1;fillColor=default;fillStyle=dots;strokeColor=#CCCCCC;" vertex="1" parent="4Rz57oh3S_hWfWaD270Q-34">
          <mxGeometry x="17.5" y="210" width="80" height="25" as="geometry" />
        </mxCell>
        <mxCell id="CpKSm_lZ4Au84QsUmd1u-121" value="dplyr" style="shape=delay;whiteSpace=wrap;html=1;fillColor=default;fillStyle=dots;strokeColor=#CCCCCC;" vertex="1" parent="4Rz57oh3S_hWfWaD270Q-34">
          <mxGeometry x="17.5" y="270" width="80" height="25" as="geometry" />
        </mxCell>
        <mxCell id="CpKSm_lZ4Au84QsUmd1u-1" value="Données" style="swimlane;whiteSpace=wrap;html=1;fillColor=#ffcccc;strokeColor=#36393d;swimlaneFillColor=#ffeddb;startSize=23;" vertex="1" parent="1">
          <mxGeometry x="710" y="400" width="110" height="100" as="geometry" />
        </mxCell>
        <mxCell id="CpKSm_lZ4Au84QsUmd1u-14" value="" style="shape=image;html=1;verticalAlign=top;verticalLabelPosition=bottom;labelBackgroundColor=#ffffff;imageAspect=0;aspect=fixed;image=https://cdn0.iconfinder.com/data/icons/phosphor-light-vol-2/256/file-csv-light-128.png" vertex="1" parent="CpKSm_lZ4Au84QsUmd1u-1">
          <mxGeometry x="35" y="30" width="40" height="40" as="geometry" />
        </mxCell>
        <mxCell id="CpKSm_lZ4Au84QsUmd1u-15" value="fichier : DF_Finale" style="rounded=0;whiteSpace=wrap;html=1;strokeColor=#F19C99;fillColor=#ffeddb;strokeWidth=1;" vertex="1" parent="CpKSm_lZ4Au84QsUmd1u-1">
          <mxGeometry x="5" y="72" width="100" height="20" as="geometry" />
        </mxCell>
        <mxCell id="CpKSm_lZ4Au84QsUmd1u-17" value="" style="shape=flexArrow;endArrow=classic;html=1;rounded=0;entryX=0.5;entryY=1;entryDx=0;entryDy=0;exitX=1;exitY=0.5;exitDx=0;exitDy=0;" edge="1" parent="1" source="CpKSm_lZ4Au84QsUmd1u-1" target="4Rz57oh3S_hWfWaD270Q-34">
          <mxGeometry width="50" height="50" relative="1" as="geometry">
            <mxPoint x="390" y="1105" as="sourcePoint" />
            <mxPoint x="580" y="960" as="targetPoint" />
          </mxGeometry>
        </mxCell>
        <mxCell id="CpKSm_lZ4Au84QsUmd1u-19" value="Retour données traités" style="edgeLabel;html=1;align=center;verticalAlign=middle;resizable=0;points=[];" vertex="1" connectable="0" parent="CpKSm_lZ4Au84QsUmd1u-17">
          <mxGeometry x="0.1842" y="1" relative="1" as="geometry">
            <mxPoint x="1" as="offset" />
          </mxGeometry>
        </mxCell>
        <mxCell id="CpKSm_lZ4Au84QsUmd1u-22" value="Authentification" style="swimlane;whiteSpace=wrap;html=1;fillColor=#ffcccc;strokeColor=#36393d;swimlaneFillColor=#ffeddb;" vertex="1" parent="1">
          <mxGeometry x="680" y="-530" width="170" height="105" as="geometry" />
        </mxCell>
        <mxCell id="CpKSm_lZ4Au84QsUmd1u-41" value="shinymanager" style="shape=delay;whiteSpace=wrap;html=1;fillColor=default;fillStyle=dots;strokeColor=#CCCCCC;" vertex="1" parent="CpKSm_lZ4Au84QsUmd1u-22">
          <mxGeometry x="45" y="29" width="80" height="25" as="geometry" />
        </mxCell>
        <mxCell id="CpKSm_lZ4Au84QsUmd1u-44" value="user&lt;div&gt;password&lt;/div&gt;" style="rounded=0;whiteSpace=wrap;html=1;strokeColor=#EA6B66;align=left;fillColor=#ffeddb;" vertex="1" parent="CpKSm_lZ4Au84QsUmd1u-22">
          <mxGeometry x="55" y="59" width="60" height="40" as="geometry" />
        </mxCell>
        <mxCell id="CpKSm_lZ4Au84QsUmd1u-45" style="edgeStyle=orthogonalEdgeStyle;rounded=0;orthogonalLoop=1;jettySize=auto;html=1;exitX=1;exitY=0.5;exitDx=0;exitDy=0;entryX=0.5;entryY=0;entryDx=0;entryDy=0;" edge="1" parent="1" source="CpKSm_lZ4Au84QsUmd1u-22" target="4Rz57oh3S_hWfWaD270Q-34">
          <mxGeometry relative="1" as="geometry" />
        </mxCell>
        <mxCell id="CpKSm_lZ4Au84QsUmd1u-46" value="secure_server" style="edgeLabel;html=1;align=center;verticalAlign=middle;resizable=0;points=[];" vertex="1" connectable="0" parent="CpKSm_lZ4Au84QsUmd1u-45">
          <mxGeometry x="-0.2692" y="4" relative="1" as="geometry">
            <mxPoint as="offset" />
          </mxGeometry>
        </mxCell>
        <mxCell id="CpKSm_lZ4Au84QsUmd1u-47" style="edgeStyle=orthogonalEdgeStyle;rounded=0;orthogonalLoop=1;jettySize=auto;html=1;exitX=0;exitY=0.5;exitDx=0;exitDy=0;entryX=0.5;entryY=0;entryDx=0;entryDy=0;" edge="1" parent="1" source="CpKSm_lZ4Au84QsUmd1u-22" target="CpKSm_lZ4Au84QsUmd1u-49">
          <mxGeometry relative="1" as="geometry">
            <mxPoint x="473.70000000000005" y="62.440000000000055" as="targetPoint" />
          </mxGeometry>
        </mxCell>
        <mxCell id="CpKSm_lZ4Au84QsUmd1u-48" value="secure_app" style="edgeLabel;html=1;align=center;verticalAlign=middle;resizable=0;points=[];" vertex="1" connectable="0" parent="CpKSm_lZ4Au84QsUmd1u-47">
          <mxGeometry x="-0.2219" y="2" relative="1" as="geometry">
            <mxPoint as="offset" />
          </mxGeometry>
        </mxCell>
        <mxCell id="CpKSm_lZ4Au84QsUmd1u-49" value="Interface Utilisateur ((UI)" style="swimlane;whiteSpace=wrap;html=1;fillColor=#ffcccc;strokeColor=#36393d;swimlaneFillColor=#ffeddb;" vertex="1" parent="1">
          <mxGeometry x="50" y="-260" width="620" height="520" as="geometry" />
        </mxCell>
        <mxCell id="4Rz57oh3S_hWfWaD270Q-18" value="Visualisation" style="shape=ext;double=1;rounded=0;whiteSpace=wrap;html=1;fillColor=#ffeddb;strokeColor=#99004D;strokeWidth=2;" parent="CpKSm_lZ4Au84QsUmd1u-49" vertex="1">
          <mxGeometry x="121.75" y="40" width="95" height="30" as="geometry" />
        </mxCell>
        <mxCell id="4Rz57oh3S_hWfWaD270Q-19" value="Carte intéractive" style="shape=ext;double=1;rounded=0;whiteSpace=wrap;html=1;fillColor=#ffeddb;strokeColor=#99004D;strokeWidth=2;" parent="CpKSm_lZ4Au84QsUmd1u-49" vertex="1">
          <mxGeometry x="430" y="40" width="120" height="30" as="geometry" />
        </mxCell>
        <mxCell id="4Rz57oh3S_hWfWaD270Q-17" value="Contexte" style="shape=ext;double=1;rounded=0;whiteSpace=wrap;html=1;fillColor=#ffeddb;strokeColor=#99004D;strokeWidth=2;" parent="CpKSm_lZ4Au84QsUmd1u-49" vertex="1">
          <mxGeometry x="447.5" y="330" width="85" height="30" as="geometry" />
        </mxCell>
        <mxCell id="CpKSm_lZ4Au84QsUmd1u-64" style="edgeStyle=orthogonalEdgeStyle;rounded=0;orthogonalLoop=1;jettySize=auto;html=1;entryX=0.5;entryY=0;entryDx=0;entryDy=0;" edge="1" parent="CpKSm_lZ4Au84QsUmd1u-49" source="CpKSm_lZ4Au84QsUmd1u-56" target="CpKSm_lZ4Au84QsUmd1u-63">
          <mxGeometry relative="1" as="geometry" />
        </mxCell>
        <mxCell id="CpKSm_lZ4Au84QsUmd1u-56" value="sliderInput" style="labelPosition=center;verticalLabelPosition=middle;align=center;html=1;shape=mxgraph.basic.shaded_button;dx=10;fillColor=#fad9d5;strokeColor=#ae4132;whiteSpace=wrap;" vertex="1" parent="CpKSm_lZ4Au84QsUmd1u-49">
          <mxGeometry x="197" y="90" width="90" height="37" as="geometry" />
        </mxCell>
        <mxCell id="CpKSm_lZ4Au84QsUmd1u-67" style="edgeStyle=orthogonalEdgeStyle;rounded=0;orthogonalLoop=1;jettySize=auto;html=1;" edge="1" parent="CpKSm_lZ4Au84QsUmd1u-49" source="CpKSm_lZ4Au84QsUmd1u-57" target="CpKSm_lZ4Au84QsUmd1u-65">
          <mxGeometry relative="1" as="geometry" />
        </mxCell>
        <mxCell id="CpKSm_lZ4Au84QsUmd1u-57" value="selectInput" style="labelPosition=center;verticalLabelPosition=middle;align=center;html=1;shape=mxgraph.basic.shaded_button;dx=10;fillColor=#fad9d5;strokeColor=#ae4132;whiteSpace=wrap;" vertex="1" parent="CpKSm_lZ4Au84QsUmd1u-49">
          <mxGeometry x="118" y="180" width="90" height="37" as="geometry" />
        </mxCell>
        <mxCell id="CpKSm_lZ4Au84QsUmd1u-62" style="edgeStyle=orthogonalEdgeStyle;rounded=0;orthogonalLoop=1;jettySize=auto;html=1;entryX=0.5;entryY=0;entryDx=0;entryDy=0;" edge="1" parent="CpKSm_lZ4Au84QsUmd1u-49" source="CpKSm_lZ4Au84QsUmd1u-58" target="CpKSm_lZ4Au84QsUmd1u-60">
          <mxGeometry relative="1" as="geometry" />
        </mxCell>
        <mxCell id="CpKSm_lZ4Au84QsUmd1u-58" value="checkboxGroupInput" style="labelPosition=center;verticalLabelPosition=middle;align=center;html=1;shape=mxgraph.basic.shaded_button;dx=10;whiteSpace=wrap;fillColor=#fad9d5;strokeWidth=1;strokeColor=#ae4132;" vertex="1" parent="CpKSm_lZ4Au84QsUmd1u-49">
          <mxGeometry x="39.5" y="90" width="140" height="37" as="geometry" />
        </mxCell>
        <mxCell id="CpKSm_lZ4Au84QsUmd1u-60" value="Etiquette DPE" style="rounded=0;whiteSpace=wrap;html=1;strokeColor=#EA6B66;align=left;fillColor=#ffeddb;" vertex="1" parent="CpKSm_lZ4Au84QsUmd1u-49">
          <mxGeometry x="69.5" y="150" width="80" height="20" as="geometry" />
        </mxCell>
        <mxCell id="CpKSm_lZ4Au84QsUmd1u-63" value="conso totale" style="rounded=0;whiteSpace=wrap;html=1;strokeColor=#EA6B66;align=left;fillColor=#ffeddb;" vertex="1" parent="CpKSm_lZ4Au84QsUmd1u-49">
          <mxGeometry x="207" y="150" width="70" height="20" as="geometry" />
        </mxCell>
        <mxCell id="CpKSm_lZ4Au84QsUmd1u-65" value="Type logement" style="rounded=0;whiteSpace=wrap;html=1;strokeColor=#EA6B66;align=left;fillColor=#ffeddb;" vertex="1" parent="CpKSm_lZ4Au84QsUmd1u-49">
          <mxGeometry x="120.5" y="240" width="85" height="20" as="geometry" />
        </mxCell>
        <mxCell id="CpKSm_lZ4Au84QsUmd1u-68" style="edgeStyle=orthogonalEdgeStyle;rounded=0;orthogonalLoop=1;jettySize=auto;html=1;entryX=0.5;entryY=0;entryDx=0;entryDy=0;" edge="1" parent="CpKSm_lZ4Au84QsUmd1u-49" source="CpKSm_lZ4Au84QsUmd1u-69" target="CpKSm_lZ4Au84QsUmd1u-70">
          <mxGeometry relative="1" as="geometry" />
        </mxCell>
        <mxCell id="CpKSm_lZ4Au84QsUmd1u-69" value="checkboxGroupInput" style="labelPosition=center;verticalLabelPosition=middle;align=center;html=1;shape=mxgraph.basic.shaded_button;dx=10;fillColor=#fad9d5;strokeColor=#ae4132;whiteSpace=wrap;" vertex="1" parent="CpKSm_lZ4Au84QsUmd1u-49">
          <mxGeometry x="420" y="80" width="140" height="37" as="geometry" />
        </mxCell>
        <mxCell id="CpKSm_lZ4Au84QsUmd1u-70" value="Etiquette DPE" style="rounded=0;whiteSpace=wrap;html=1;strokeColor=#EA6B66;align=left;fillColor=#ffeddb;" vertex="1" parent="CpKSm_lZ4Au84QsUmd1u-49">
          <mxGeometry x="450" y="138" width="80" height="22" as="geometry" />
        </mxCell>
        <mxCell id="CpKSm_lZ4Au84QsUmd1u-71" value="&lt;li&gt;&lt;font face=&quot;Helvetica&quot;&gt;Histogramme des étiquettes DPE&lt;/font&gt;&lt;/li&gt;&lt;li&gt;&lt;font face=&quot;Helvetica&quot;&gt;Boxplot des coûts énergétiques&lt;/font&gt;&lt;/li&gt;&lt;li&gt;&lt;font face=&quot;Helvetica&quot;&gt;Scatter plot Consommation vs Surface&lt;/font&gt;&lt;/li&gt;&lt;li&gt;&lt;font face=&quot;Helvetica&quot;&gt;Diagramme circulaire&lt;/font&gt;&lt;/li&gt;" style="rounded=1;whiteSpace=wrap;html=1;fontStyle=0;fontFamily=Helvetica;align=left;verticalAlign=top;fillColor=#ffcccc;strokeColor=#36393d;" vertex="1" parent="CpKSm_lZ4Au84QsUmd1u-49">
          <mxGeometry x="66.75" y="280" width="183" height="130" as="geometry" />
        </mxCell>
        <mxCell id="CpKSm_lZ4Au84QsUmd1u-73" value="&lt;li&gt;Carte Intéractive&lt;/li&gt;" style="rounded=1;whiteSpace=wrap;html=1;fontStyle=0;fontFamily=Helvetica;align=left;verticalAlign=middle;fillColor=#ffcccc;strokeColor=#36393d;" vertex="1" parent="CpKSm_lZ4Au84QsUmd1u-49">
          <mxGeometry x="430" y="170" width="120" height="20" as="geometry" />
        </mxCell>
        <mxCell id="CpKSm_lZ4Au84QsUmd1u-111" value="" style="line;strokeWidth=6;direction=south;html=1;fillColor=#FFFFFF;strokeColor=#FFFFFF;" vertex="1" parent="CpKSm_lZ4Au84QsUmd1u-49">
          <mxGeometry x="345" y="25" width="10" height="240" as="geometry" />
        </mxCell>
        <mxCell id="CpKSm_lZ4Au84QsUmd1u-119" value="&lt;li&gt;&lt;span style=&quot;background-color: initial;&quot;&gt;Total Logements&lt;/span&gt;&lt;br&gt;&lt;/li&gt;&lt;li style=&quot;font-family: &amp;quot;Times New Roman&amp;quot;;&quot;&gt;&lt;code&gt;&lt;font face=&quot;Helvetica&quot;&gt;Passoires thermiques&lt;/font&gt;&lt;/code&gt;&lt;/li&gt;&lt;li style=&quot;font-family: &amp;quot;Times New Roman&amp;quot;;&quot;&gt;&lt;code&gt;&lt;font face=&quot;Helvetica&quot;&gt;Conso. énergétique moyenne&lt;/font&gt;&lt;/code&gt;&lt;/li&gt;&lt;li style=&quot;font-family: &amp;quot;Times New Roman&amp;quot;;&quot;&gt;&lt;code&gt;&lt;span style=&quot;font-family: Helvetica;&quot;&gt;Datatable&lt;/span&gt;&lt;font face=&quot;Helvetica&quot;&gt;&lt;br&gt;&lt;/font&gt;&lt;/code&gt;&lt;/li&gt;" style="rounded=1;whiteSpace=wrap;html=1;fontStyle=0;fontFamily=Helvetica;align=left;verticalAlign=top;fillColor=#ffcccc;strokeColor=#36393d;" vertex="1" parent="CpKSm_lZ4Au84QsUmd1u-49">
          <mxGeometry x="398.5" y="381" width="183" height="68" as="geometry" />
        </mxCell>
        <mxCell id="CpKSm_lZ4Au84QsUmd1u-109" value="" style="shape=partialRectangle;whiteSpace=wrap;html=1;bottom=0;right=0;fillColor=none;strokeColor=#FFFFFF;strokeWidth=6;" vertex="1" parent="CpKSm_lZ4Au84QsUmd1u-49">
          <mxGeometry x="350" y="260" width="270" height="260" as="geometry" />
        </mxCell>
        <mxCell id="CpKSm_lZ4Au84QsUmd1u-124" value="leaflet" style="shape=delay;whiteSpace=wrap;html=1;fillColor=default;fillStyle=dots;strokeColor=#CCCCCC;" vertex="1" parent="CpKSm_lZ4Au84QsUmd1u-49">
          <mxGeometry x="466.5" y="204" width="45" height="25" as="geometry" />
        </mxCell>
        <mxCell id="CpKSm_lZ4Au84QsUmd1u-125" value="DT" style="shape=delay;whiteSpace=wrap;html=1;fillColor=default;fillStyle=dots;strokeColor=#CCCCCC;" vertex="1" parent="CpKSm_lZ4Au84QsUmd1u-49">
          <mxGeometry x="470" y="490" width="45" height="25" as="geometry" />
        </mxCell>
        <mxCell id="CpKSm_lZ4Au84QsUmd1u-127" value="shinydashboard" style="shape=delay;whiteSpace=wrap;html=1;fillColor=default;fillStyle=dots;strokeColor=#CCCCCC;" vertex="1" parent="CpKSm_lZ4Au84QsUmd1u-49">
          <mxGeometry x="102.5" y="440" width="111.5" height="25" as="geometry" />
        </mxCell>
        <mxCell id="CpKSm_lZ4Au84QsUmd1u-91" value="Légende : " style="shape=table;startSize=30;container=1;collapsible=0;childLayout=tableLayout;fontSize=16;align=left;verticalAlign=top;fillColor=#fad9d5;strokeColor=#ae4132;fontStyle=1;spacingLeft=6;spacing=0;resizable=0;strokeWidth=4;" vertex="1" parent="1">
          <mxGeometry x="1260" y="244" width="180" height="270" as="geometry" />
        </mxCell>
        <mxCell id="CpKSm_lZ4Au84QsUmd1u-92" value="" style="shape=tableRow;horizontal=0;startSize=0;swimlaneHead=0;swimlaneBody=0;strokeColor=inherit;top=0;left=0;bottom=0;right=0;collapsible=0;dropTarget=0;fillColor=none;points=[[0,0.5],[1,0.5]];portConstraint=eastwest;fontSize=12;" vertex="1" parent="CpKSm_lZ4Au84QsUmd1u-91">
          <mxGeometry y="30" width="180" height="60" as="geometry" />
        </mxCell>
        <mxCell id="CpKSm_lZ4Au84QsUmd1u-93" value="" style="shape=partialRectangle;html=1;whiteSpace=wrap;connectable=0;strokeColor=inherit;overflow=hidden;fillColor=#ffeddb;top=0;left=0;bottom=0;right=0;pointerEvents=1;fontSize=12;align=left;fontColor=#FFFFFF;gradientColor=none;spacingLeft=10;spacingRight=4;" vertex="1" parent="CpKSm_lZ4Au84QsUmd1u-92">
          <mxGeometry width="180" height="60" as="geometry">
            <mxRectangle width="180" height="60" as="alternateBounds" />
          </mxGeometry>
        </mxCell>
        <mxCell id="CpKSm_lZ4Au84QsUmd1u-94" value="" style="shape=tableRow;horizontal=0;startSize=0;swimlaneHead=0;swimlaneBody=0;strokeColor=inherit;top=0;left=0;bottom=0;right=0;collapsible=0;dropTarget=0;fillColor=none;points=[[0,0.5],[1,0.5]];portConstraint=eastwest;fontSize=12;" vertex="1" parent="CpKSm_lZ4Au84QsUmd1u-91">
          <mxGeometry y="90" width="180" height="30" as="geometry" />
        </mxCell>
        <mxCell id="CpKSm_lZ4Au84QsUmd1u-95" value="" style="shape=partialRectangle;html=1;whiteSpace=wrap;connectable=0;strokeColor=inherit;overflow=hidden;fillColor=#ffeddb;top=0;left=0;bottom=0;right=0;pointerEvents=1;fontSize=12;align=left;fontColor=#FFFFFF;gradientColor=none;spacingLeft=10;spacingRight=4;" vertex="1" parent="CpKSm_lZ4Au84QsUmd1u-94">
          <mxGeometry width="180" height="30" as="geometry">
            <mxRectangle width="180" height="30" as="alternateBounds" />
          </mxGeometry>
        </mxCell>
        <mxCell id="CpKSm_lZ4Au84QsUmd1u-96" value="" style="shape=tableRow;horizontal=0;startSize=0;swimlaneHead=0;swimlaneBody=0;strokeColor=inherit;top=0;left=0;bottom=0;right=0;collapsible=0;dropTarget=0;fillColor=none;points=[[0,0.5],[1,0.5]];portConstraint=eastwest;fontSize=12;" vertex="1" parent="CpKSm_lZ4Au84QsUmd1u-91">
          <mxGeometry y="120" width="180" height="50" as="geometry" />
        </mxCell>
        <mxCell id="CpKSm_lZ4Au84QsUmd1u-97" value="" style="shape=partialRectangle;html=1;whiteSpace=wrap;connectable=0;overflow=hidden;top=0;left=0;bottom=0;right=0;pointerEvents=1;fontSize=12;align=left;spacingLeft=10;spacingRight=4;fillColor=#ffeddb;" vertex="1" parent="CpKSm_lZ4Au84QsUmd1u-96">
          <mxGeometry width="180" height="50" as="geometry">
            <mxRectangle width="180" height="50" as="alternateBounds" />
          </mxGeometry>
        </mxCell>
        <mxCell id="CpKSm_lZ4Au84QsUmd1u-98" value="" style="shape=tableRow;horizontal=0;startSize=0;swimlaneHead=0;swimlaneBody=0;strokeColor=inherit;top=0;left=0;bottom=0;right=0;collapsible=0;dropTarget=0;fillColor=none;points=[[0,0.5],[1,0.5]];portConstraint=eastwest;fontSize=12;" vertex="1" parent="CpKSm_lZ4Au84QsUmd1u-91">
          <mxGeometry y="170" width="180" height="50" as="geometry" />
        </mxCell>
        <mxCell id="CpKSm_lZ4Au84QsUmd1u-99" value="" style="shape=partialRectangle;html=1;whiteSpace=wrap;connectable=0;strokeColor=inherit;overflow=hidden;fillColor=#ffeddb;top=0;left=0;bottom=0;right=0;pointerEvents=1;fontSize=12;align=left;fontColor=#FFFFFF;gradientColor=none;spacingLeft=10;spacingRight=4;" vertex="1" parent="CpKSm_lZ4Au84QsUmd1u-98">
          <mxGeometry width="180" height="50" as="geometry">
            <mxRectangle width="180" height="50" as="alternateBounds" />
          </mxGeometry>
        </mxCell>
        <mxCell id="CpKSm_lZ4Au84QsUmd1u-100" value="" style="shape=tableRow;horizontal=0;startSize=0;swimlaneHead=0;swimlaneBody=0;strokeColor=inherit;top=0;left=0;bottom=0;right=0;collapsible=0;dropTarget=0;fillColor=none;points=[[0,0.5],[1,0.5]];portConstraint=eastwest;fontSize=12;" vertex="1" parent="CpKSm_lZ4Au84QsUmd1u-91">
          <mxGeometry y="220" width="180" height="50" as="geometry" />
        </mxCell>
        <mxCell id="CpKSm_lZ4Au84QsUmd1u-101" value="" style="shape=partialRectangle;html=1;whiteSpace=wrap;connectable=0;overflow=hidden;top=0;left=0;bottom=0;right=0;pointerEvents=1;fontSize=12;align=left;spacingLeft=10;spacingRight=4;fillColor=#FFEDDB;strokeColor=#ae4132;" vertex="1" parent="CpKSm_lZ4Au84QsUmd1u-100">
          <mxGeometry width="180" height="50" as="geometry">
            <mxRectangle width="180" height="50" as="alternateBounds" />
          </mxGeometry>
        </mxCell>
        <mxCell id="CpKSm_lZ4Au84QsUmd1u-104" value="Onglets" style="shape=ext;double=1;rounded=0;whiteSpace=wrap;html=1;fillColor=#ffeddb;strokeColor=#99004D;strokeWidth=2;" vertex="1" parent="1">
          <mxGeometry x="1290" y="289" width="120" height="30" as="geometry" />
        </mxCell>
        <mxCell id="CpKSm_lZ4Au84QsUmd1u-105" value="Output" style="rounded=1;whiteSpace=wrap;html=1;fontStyle=0;fontFamily=Helvetica;align=center;verticalAlign=middle;fillColor=#ffcccc;strokeColor=#36393d;" vertex="1" parent="1">
          <mxGeometry x="1314" y="338" width="70" height="20" as="geometry" />
        </mxCell>
        <mxCell id="CpKSm_lZ4Au84QsUmd1u-108" value="filtres" style="labelPosition=center;verticalLabelPosition=middle;align=center;html=1;shape=mxgraph.basic.shaded_button;dx=10;fillColor=#fad9d5;strokeColor=#ae4132;whiteSpace=wrap;" vertex="1" parent="1">
          <mxGeometry x="1305" y="368" width="90" height="37" as="geometry" />
        </mxCell>
        <mxCell id="CpKSm_lZ4Au84QsUmd1u-114" value="&lt;h5&gt;Graphique&lt;/h5&gt;" style="ellipse;whiteSpace=wrap;html=1;strokeWidth=1;fillWeight=2;hachureGap=8;fillColor=#d0cee2;fillStyle=dots;sketch=1;direction=west;strokeColor=#67AB9F;" vertex="1" parent="1">
          <mxGeometry x="1297.5" y="417" width="105" height="40" as="geometry" />
        </mxCell>
        <mxCell id="CpKSm_lZ4Au84QsUmd1u-115" value="Package" style="shape=delay;whiteSpace=wrap;html=1;fillColor=default;fillStyle=dots;strokeColor=#CCCCCC;" vertex="1" parent="1">
          <mxGeometry x="1314" y="479" width="80" height="25" as="geometry" />
        </mxCell>
        <mxCell id="CpKSm_lZ4Au84QsUmd1u-129" style="edgeStyle=orthogonalEdgeStyle;rounded=0;orthogonalLoop=1;jettySize=auto;html=1;exitX=0.25;exitY=0;exitDx=0;exitDy=0;entryX=0;entryY=0;entryDx=0;entryDy=0;" edge="1" parent="1" source="CpKSm_lZ4Au84QsUmd1u-1" target="CpKSm_lZ4Au84QsUmd1u-1">
          <mxGeometry relative="1" as="geometry" />
        </mxCell>
        <mxCell id="CpKSm_lZ4Au84QsUmd1u-128" value="shiny" style="shape=delay;whiteSpace=wrap;html=1;fillColor=default;fillStyle=dots;strokeColor=#CCCCCC;" vertex="1" parent="1">
          <mxGeometry x="746" y="-579" width="45" height="25" as="geometry" />
        </mxCell>
      </root>
    </mxGraphModel>
  </diagram>
</mxfile>
